<?xml version="1.0" encoding="utf-8"?>
<!-- Generator: Adobe Illustrator 24.3.0, SVG Export Plug-In . SVG Version: 6.00 Build 0)  -->
<svg version="1.1" id="Layer_1" xmlns="http://www.w3.org/2000/svg" xmlns:xlink="http://www.w3.org/1999/xlink" x="0px" y="0px"
	 width="18px" height="18px" viewBox="0 0 18 18" style="enable-background:new 0 0 18 18;" xml:space="preserve">
<style type="text/css">
	.st0{fill:#FFFFFF;}
	.st1{fill:none;stroke:#263238;stroke-miterlimit:10;}
	.st2{fill:#FFFFFF;stroke:#263238;stroke-linecap:round;stroke-linejoin:round;stroke-miterlimit:10;}
	.st3{fill:none;stroke:#263238;stroke-linecap:round;stroke-linejoin:round;stroke-miterlimit:10;}
	.st4{fill:#FFFFFF;stroke:#263238;stroke-miterlimit:10;}
	.st5{fill:none;stroke:#0096FF;stroke-miterlimit:10;}
	.st6{fill:#FFFFFF;stroke:#263238;stroke-width:0.9999;stroke-miterlimit:9.9994;}
	.st7{fill:none;stroke:#263238;stroke-width:2;stroke-linecap:round;stroke-miterlimit:10;}
	.st8{fill:none;stroke:#0096FF;stroke-width:1.5;stroke-linecap:round;stroke-miterlimit:10;}
	.st9{fill:none;}
</style>
<path class="st0" d="M13.1,1.4L7.5,1.7L6.3,3.1C4.6,5,4.3,6.9,4.3,8.9L3,14.5c0,2,0.5,1.9,2.5,1.9l1.2-6.5l2.6-5.1l1.1-0.6l2.5,6.1
	l2,5.4c2,0,1.9-0.9,1.9-3V5.1C16.8,3,15.2,1.4,13.1,1.4z"/>
<path class="st1" d="M2.8,15.4c0,0,1.1-7,2.1-9.6c0.8-2.1,2-3.4,2.3-3.6c0.9-0.5,1.7,0.2,1.7,0.2s1.7,1.2,3,5.1s3.1,8.6,3.1,8.6"/>
<path class="st1" d="M5.8,16.7c0,0,0.2-2.5,0.7-5.8c0.4-2.8,1.9-6,3.6-7.1"/>
<g id="Layer_1_1_">
	<path class="st2" d="M30.6,0.6"/>
	<path class="st2" d="M30.6-7.4"/>
	<path class="st3" d="M33.1-10.9h-1.9c-1.2,0-2.1-0.7-2.1-1.6v-3.4"/>
	<path class="st3" d="M29.4-15.9h-6.6c-0.4,0-0.7,0.3-0.7,0.7V0.3c0,0.4,0.3,0.7,0.7,0.7h8.1"/>
	<polyline class="st3" points="29.4,-15.9 33.1,-11.5 33.1,-7.7 	"/>
	<path class="st4" d="M9.8-6h-6c-1.1,0-2-0.9-2-2l0,0c0-1.1,0.9-2,2-2h6c1.1,0,2,0.9,2,2l0,0C11.7-6.9,10.9-6,9.8-6z"/>
	<path class="st5" d="M16.8-7.3h-6c-1.1,0-2-0.9-2-2l0,0c0-1.1,0.9-2,2-2h6c1.1,0,2,0.9,2,2l0,0C18.7-8.2,17.9-7.3,16.8-7.3z"/>
	<ellipse transform="matrix(0.9372 -0.3489 0.3489 0.9372 3.6701 9.3295)" class="st6" cx="27.7" cy="-5.5" rx="4.2" ry="4.4"/>
	<line class="st7" x1="37.7" y1="0.1" x2="31.8" y2="-2.8"/>
	<polyline class="st8" points="26,-4.9 27.6,-3.6 31.1,-8.3 	"/>
	<path class="st4" d="M38.3-26.8c0-3.5-3.7-6.4-8.2-6.4s-8.2,2.9-8.2,6.4s3.7,6.4,8.2,6.4c0.8,0,1.1,0,1.8-0.1
		c0.5-0.1,1.8,2.4,2.2,2.2c0.5-0.2,0.4-3.1,0.8-3.3C37-22.8,38.3-24.7,38.3-26.8z"/>
	<g>
		<rect x="26.4" y="-33.2" class="st9" width="8.8" height="12.5"/>
		<text transform="matrix(1 0 0 1 26.394 -22.1956)" style="fill:#0096FF; font-family:'ArialRoundedMTBold'; font-size:13px;">?</text>
	</g>
</g>
<g id="Layer_2_1_">
</g>
<path class="st1" d="M13.2,1.3H5.4c-2,0-3.7,1.6-3.7,3.7v7.9c0,2,1.6,3.7,3.7,3.7h7.9c2,0,3.7-1.6,3.7-3.7V5
	C16.9,2.9,15.3,1.3,13.2,1.3z"/>
<path class="st4" d="M33.1,14.6"/>
<path class="st4" d="M-11.9,19.8"/>
<path class="st1" d="M7.2,17.1"/>
<path class="st1" d="M10.6,17.1"/>
<path class="st1" d="M8.2,16"/>
<path class="st0" d="M9,15.2"/>
<path class="st0" d="M10,15.3"/>
<rect x="-22.8" y="22.3" class="st9" width="20.4" height="12.3"/>
<text transform="matrix(1 0 0 1 -22.8102 29.9948)" style="fill:#0096FF; font-family:'MetaSerifOT-Medi'; font-size:10.5px;">JHP</text>
</svg>
